<svg width="50" height="50" viewBox="0 0 50 50" fill="none" xmlns="http://www.w3.org/2000/svg">
<g clip-path="url(#clip0_2_54)">
<path d="M25 0C20.0555 0 15.222 1.46622 11.1108 4.21326C6.99953 6.9603 3.79521 10.8648 1.90302 15.4329C0.010832 20.0011 -0.484251 25.0277 0.480379 29.8773C1.44501 34.7268 3.82603 39.1814 7.32234 42.6777C10.8187 46.174 15.2732 48.555 20.1228 49.5196C24.9723 50.4843 29.9989 49.9892 34.5671 48.097C39.1353 46.2048 43.0397 43.0005 45.7868 38.8893C48.5338 34.778 50 29.9445 50 25C50 18.3696 47.3661 12.0107 42.6777 7.32233C37.9893 2.63392 31.6304 0 25 0V0ZM31.3355 22.6316L30.9211 26.1151C30.9032 26.2768 30.826 26.4261 30.7045 26.5342C30.5831 26.6424 30.4258 26.7016 30.2632 26.7007H26.6447V37.0296C26.6456 37.1529 26.5977 37.2716 26.5114 37.3597C26.4252 37.4478 26.3075 37.4983 26.1842 37.5H22.5C22.4387 37.4991 22.3781 37.4862 22.3218 37.4619C22.2654 37.4377 22.2144 37.4025 22.1716 37.3586C22.1289 37.3146 22.0952 37.2626 22.0725 37.2056C22.0498 37.1486 22.0386 37.0877 22.0395 37.0263L22.0592 26.7007H19.3191C19.1446 26.7007 18.9773 26.6313 18.8539 26.508C18.7305 26.3846 18.6612 26.2172 18.6612 26.0428V22.5625C18.6612 22.388 18.7305 22.2207 18.8539 22.0973C18.9773 21.9739 19.1446 21.9046 19.3191 21.9046H22.0395V18.5296C22.0395 14.625 24.3651 12.5 27.7632 12.5H30.5494C30.7238 12.5 30.8912 12.5693 31.0146 12.6927C31.1379 12.8161 31.2073 12.9834 31.2073 13.1579V16.0888C31.2073 16.2633 31.1379 16.4306 31.0146 16.554C30.8912 16.6774 30.7238 16.7467 30.5494 16.7467H28.8421C26.9934 16.7763 26.6447 17.6612 26.6447 18.9836V21.8947H30.6974C30.7892 21.8968 30.8795 21.9181 30.9626 21.9572C31.0457 21.9963 31.1196 22.0524 31.1797 22.1218C31.2398 22.1912 31.2848 22.2724 31.3116 22.3602C31.3384 22.448 31.3466 22.5404 31.3355 22.6316V22.6316Z" fill="#A07752"/>
</g>
<defs>
<clipPath id="clip0_2_54">
<rect width="50" height="50" fill="white"/>
</clipPath>
</defs>
</svg>
