<?xml version="1.0" encoding="UTF-8"?>
<svg id="Capa_2" xmlns="http://www.w3.org/2000/svg" version="1.1" viewBox="0 0 49.4 49.4">
  <!-- Generator: Adobe Illustrator 29.8.2, SVG Export Plug-In . SVG Version: 2.1.1 Build 3)  -->
  <defs>
    <style>
      .st0 {
        fill: #fff;
      }
    </style>
  </defs>
  <g id="Capa_1-2">
    <g>
      <g>
        <rect class="st0" x="21.4" y="0" width="2.2" height="9.9" rx="1.1" ry="1.1"/>
        <rect class="st0" x="25.7" y="0" width="2.2" height="9.9" rx="1.1" ry="1.1"/>
      </g>
      <g>
        <rect class="st0" x="21.4" y="0" width="2.2" height="9.9" rx="1.1" ry="1.1"/>
        <rect class="st0" x="25.7" y="0" width="2.2" height="9.9" rx="1.1" ry="1.1"/>
      </g>
      <g>
        <rect class="st0" x="8.1" y="7.4" width="2.2" height="9.9" rx="1.1" ry="1.1" transform="translate(-6 10.1) rotate(-45)"/>
        <rect class="st0" x="11.1" y="4.3" width="2.2" height="9.9" rx="1.1" ry="1.1" transform="translate(-2.9 11.4) rotate(-45)"/>
      </g>
      <g>
        <rect class="st0" y="25.8" width="9.9" height="2.2" rx="1.1" ry="1.1"/>
        <rect class="st0" y="21.5" width="9.9" height="2.2" rx="1.1" ry="1.1"/>
      </g>
      <g>
        <rect class="st0" x="7.4" y="39.1" width="9.9" height="2.2" rx="1.1" ry="1.1" transform="translate(-24.8 20.5) rotate(-45)"/>
        <rect class="st0" x="4.3" y="36" width="9.9" height="2.2" rx="1.1" ry="1.1" transform="translate(-23.6 17.4) rotate(-45)"/>
      </g>
      <g>
        <rect class="st0" x="25.8" y="39.5" width="2.2" height="9.9" rx="1.1" ry="1.1"/>
        <rect class="st0" x="21.5" y="39.5" width="2.2" height="9.9" rx="1.1" ry="1.1"/>
      </g>
      <g>
        <rect class="st0" x="39.1" y="32.1" width="2.2" height="9.9" rx="1.1" ry="1.1" transform="translate(-14.4 39.3) rotate(-45)"/>
        <rect class="st0" x="36" y="35.2" width="2.2" height="9.9" rx="1.1" ry="1.1" transform="translate(-17.5 38) rotate(-45)"/>
      </g>
      <g>
        <rect class="st0" x="39.5" y="21.4" width="9.9" height="2.2" rx="1.1" ry="1.1"/>
        <rect class="st0" x="39.5" y="25.7" width="9.9" height="2.2" rx="1.1" ry="1.1"/>
      </g>
      <g>
        <rect class="st0" x="32.1" y="8.1" width="9.9" height="2.2" rx="1.1" ry="1.1" transform="translate(4.4 28.9) rotate(-45)"/>
        <rect class="st0" x="35.2" y="11.1" width="9.9" height="2.2" rx="1.1" ry="1.1" transform="translate(3.1 32) rotate(-45)"/>
      </g>
    </g>
    <g>
      <path class="st0" d="M24.2,24.2l-.8,3.8-1.6-2.2.2-2.8-.6,2.4-1.5-2.1.2-2h0c0,.1-.4,1.7-.4,1.7l-2.4-3.1,2.2,3.3c0,0-.2,0-.3,0-.4,0-.7,0-1.1-.1h-.4s2,.5,2,.5l1.4,2.1h0s-2.5-.2-2.5-.2l2.8.6,1.6,2.3-3.9-.4h0c0,0,4.3.9,4.3.9l1.3,1.9s0,0,0,0c-.1,0-.4,0-.5.1-3.8.7-6.7-2-7.7-5.5-.7-2.4-.7-4.9-.5-7.3,2.1.3,4.1,1,6,1.9,4.1,1.9,5.8,5,3.9,9.4-.1.3-.3.7-.5,1l-1.4-1.9.4-4.4h0Z"/>
      <path class="st0" d="M29.7,27.6c-.4.4-.7.8-1,1.1,0,0,0,0-.1,0l-.3-2.3v2.6c0,0-.9,1-.9,1-1.2-2.2,0-4.5,2-5.6,1.2-.7,2.8-1.1,4.2-1.3,0,1.2,0,2.3-.2,3.5-.5,2.5-1.7,4.1-4.5,3.9-.2,0-.9-.1-1.1-.2,0,0,0,0,0,0l.9-1,2.6-.4c0,0,0,0-.1,0h-.6c-.4,0-.9,0-1.3,0,0,0-.3,0-.2,0l1-1.2,1.6-.2c0-.1-.1,0-.2,0h-1.3l1-1.2,1.1-.2h-1l1.5-1.8s-.2.2-.3.2c-.5.5-.9,1-1.4,1.5h0c0,0-.1-1-.1-1v1.1l-1,1.1-.2-1.4c-.1,0,0,.2,0,.3v1.4h0Z"/>
    </g>
  </g>
</svg>