<svg width="50" height="50" viewBox="0 0 50 50" fill="none" xmlns="http://www.w3.org/2000/svg">
<g clip-path="url(#clip0_2_48)">
<path d="M25 28.9506C27.1819 28.9506 28.9506 27.1819 28.9506 25C28.9506 22.8181 27.1819 21.0493 25 21.0493C22.8181 21.0493 21.0493 22.8181 21.0493 25C21.0493 27.1819 22.8181 28.9506 25 28.9506Z" fill="#A07752"/>
<path d="M30.0527 15.0164H19.9474C18.6388 15.0164 17.3837 15.5362 16.4584 16.4616C15.533 17.3869 15.0132 18.6419 15.0132 19.9506V30.0525C15.0132 31.3612 15.533 32.6162 16.4584 33.5416C17.3837 34.4669 18.6388 34.9868 19.9474 34.9868H30.0527C31.3613 34.9868 32.6163 34.4669 33.5417 33.5416C34.467 32.6162 34.9869 31.3612 34.9869 30.0525V19.9473C34.986 18.6392 34.4658 17.385 33.5405 16.4604C32.6153 15.5358 31.3607 15.0164 30.0527 15.0164V15.0164ZM25 31.467C23.7208 31.4677 22.4701 31.0889 21.4062 30.3787C20.3423 29.6685 19.5128 28.6587 19.0229 27.477C18.5329 26.2954 18.4043 24.995 18.6535 23.7403C18.9027 22.4855 19.5183 21.3329 20.4226 20.4281C21.3269 19.5234 22.4793 18.9071 23.7339 18.6573C24.9884 18.4075 26.2889 18.5354 27.4708 19.0248C28.6527 19.5142 29.6629 20.3431 30.3737 21.4066C31.0845 22.4702 31.4638 23.7207 31.4638 24.9999C31.4621 26.714 30.7806 28.3574 29.5689 29.5698C28.3572 30.7821 26.7141 31.4644 25 31.467ZM31.5033 20.1315C31.1868 20.1321 30.8773 20.0388 30.6139 19.8634C30.3505 19.688 30.1451 19.4384 30.0237 19.1461C29.9023 18.8539 29.8703 18.5321 29.9319 18.2217C29.9935 17.9113 30.1458 17.6261 30.3696 17.4024C30.5934 17.1786 30.8785 17.0263 31.1889 16.9647C31.4994 16.9031 31.8211 16.935 32.1133 17.0564C32.4056 17.1779 32.6552 17.3833 32.8307 17.6467C33.0061 17.9101 33.0994 18.2196 33.0987 18.5361C33.0978 18.959 32.9295 19.3642 32.6305 19.6632C32.3315 19.9623 31.9262 20.1306 31.5033 20.1315V20.1315Z" fill="#A07752"/>
<path d="M25 0C20.0555 0 15.222 1.46622 11.1108 4.21326C6.99953 6.9603 3.79521 10.8648 1.90302 15.4329C0.010832 20.0011 -0.484251 25.0277 0.480379 29.8773C1.44501 34.7268 3.82603 39.1814 7.32234 42.6777C10.8187 46.174 15.2732 48.555 20.1228 49.5196C24.9723 50.4843 29.9989 49.9892 34.5671 48.097C39.1353 46.2048 43.0397 43.0005 45.7868 38.8893C48.5338 34.778 50 29.9445 50 25C50 18.3696 47.3661 12.0107 42.6777 7.32233C37.9893 2.63392 31.6304 0 25 0V0ZM37.5 30.0526C37.4983 32.0273 36.7131 33.9205 35.3168 35.3168C33.9205 36.7131 32.0273 37.4983 30.0526 37.5H19.9474C17.973 37.4974 16.0803 36.7119 14.6842 35.3158C13.2881 33.9197 12.5026 32.027 12.5 30.0526V19.9474C12.5026 17.973 13.2881 16.0803 14.6842 14.6842C16.0803 13.2881 17.973 12.5026 19.9474 12.5H30.0526C32.027 12.5026 33.9198 13.2881 35.3158 14.6842C36.7119 16.0803 37.4974 17.973 37.5 19.9474V30.0526Z" fill="#A07752"/>
</g>
<defs>
<clipPath id="clip0_2_48">
<rect width="50" height="50" fill="white"/>
</clipPath>
</defs>
</svg>
