<?xml version="1.0" encoding="UTF-8"?>
<svg id="Capa_2" data-name="Capa 2" xmlns="http://www.w3.org/2000/svg" viewBox="0 0 170.07 114.53">
  <defs>
    <style>
      .cls-1 {
        fill: #4faa3b;
      }
    </style>
  </defs>
  <g id="Capa_1-2" data-name="Capa 1">
    <polygon class="cls-1" points="37.27 11.94 37.27 .97 .14 .97 .14 11.94 .15 11.94 .15 28.39 0 28.39 0 39.36 .15 39.36 .15 62.14 13.08 62.14 13.08 39.36 35.02 39.36 35.02 28.39 13.08 28.39 13.08 11.94 37.27 11.94"/>
    <rect class="cls-1" x="48.09" y=".97" width="11.81" height="61.31"/>
    <path class="cls-1" d="M118.12,62.14h-14.63l-15.04-24.89-3.52-.14v25.03h-12.79V1.25h12.79v26.68c22.78,2.93,18-26.68,18-26.68h11.67c4.36,30.51-14.48,33.61-14.48,33.61l18,27.28Z"/>
    <path class="cls-1" d="M165.27,7.77c-.23-.27-.47-.54-.71-.8C160.34,2.49,154.21-.23,147.46.01c-5.46.2-10.4,2.3-14.13,5.64l-.07.06c-3.42,3.04-5.38,7.4-5.38,11.98v44.96h10.5v-17.81h20.06v17.3h11.63V21.34c0-4.94-1.6-9.81-4.8-13.57ZM157.29,35.28h-17.97v-15.33c-.02-.17-.03-.35-.04-.53-.17-4.86,3.76-8.94,8.79-9.12,5.02-.17,9.24,3.62,9.41,8.47h0s.03.34.03.34l-.21,16.17Z"/>
    <path class="cls-1" d="M37.83,71.15v38.75h-1.13v-35.97l-16.03,35.97h-1.13L3.44,73.92v35.97h-1.13v-38.75h1.13l16.66,37.28,16.6-37.28h1.13Z"/>
    <path class="cls-1" d="M55.25,107.77c-2.89-1.72-5.15-4.13-6.77-7.22-1.62-3.1-2.44-6.61-2.44-10.54s.81-7.44,2.44-10.54c1.62-3.1,3.88-5.5,6.77-7.22,2.89-1.72,6.17-2.58,9.83-2.58s6.94.86,9.83,2.58c2.89,1.72,5.15,4.13,6.77,7.22,1.62,3.1,2.44,6.61,2.44,10.54s-.81,7.44-2.44,10.54c-1.62,3.1-3.88,5.5-6.77,7.22-2.89,1.72-6.17,2.58-9.83,2.58s-6.94-.86-9.83-2.58ZM74.14,106.98c2.72-1.57,4.86-3.81,6.43-6.74,1.57-2.93,2.35-6.33,2.35-10.23s-.78-7.3-2.35-10.22-3.71-5.17-6.43-6.74c-2.72-1.57-5.74-2.35-9.06-2.35s-6.35.78-9.06,2.35c-2.72,1.57-4.86,3.82-6.43,6.74-1.57,2.93-2.35,6.34-2.35,10.22s.78,7.3,2.35,10.23c1.57,2.93,3.71,5.18,6.43,6.74,2.72,1.57,5.74,2.35,9.06,2.35s6.35-.78,9.06-2.35Z"/>
    <path class="cls-1" d="M163.37,75.23c3.59,3.48,5.38,8.38,5.38,14.73s-1.79,11.25-5.38,14.73c-3.59,3.48-8.82,5.21-15.69,5.21h-10.48v-39.88h10.48c6.87,0,12.11,1.74,15.69,5.21ZM162.58,103.89c3.36-3.32,5.04-7.97,5.04-13.94s-1.68-10.61-5.04-13.94c-3.36-3.32-8.33-4.99-14.9-4.99h-9.35v37.84h9.35c6.57,0,11.54-1.66,14.9-4.99Z"/>
    <g>
      <g>
        <rect class="cls-1" x="106.87" y="65.14" width="2.23" height="9.92" rx="1.11" ry="1.11"/>
        <rect class="cls-1" x="111.21" y="65.13" width="2.23" height="9.92" rx="1.11" ry="1.11"/>
      </g>
      <g>
        <rect class="cls-1" x="106.87" y="65.14" width="2.23" height="9.92" rx="1.11" ry="1.11"/>
        <rect class="cls-1" x="111.21" y="65.13" width="2.23" height="9.92" rx="1.11" ry="1.11"/>
      </g>
      <g>
        <rect class="cls-1" x="93.57" y="72.49" width="2.23" height="9.92" rx="1.11" ry="1.11" transform="translate(-27.04 89.63) rotate(-45)"/>
        <rect class="cls-1" x="96.64" y="69.41" width="2.23" height="9.92" rx="1.11" ry="1.11" transform="translate(-23.96 90.9) rotate(-45)"/>
      </g>
      <g>
        <rect class="cls-1" x="85.51" y="90.94" width="9.92" height="2.23" rx="1.11" ry="1.11"/>
        <rect class="cls-1" x="85.51" y="86.59" width="9.92" height="2.23" rx="1.11" ry="1.11"/>
      </g>
      <g>
        <rect class="cls-1" x="92.86" y="104.24" width="9.92" height="2.23" rx="1.11" ry="1.11" transform="translate(-45.84 100.03) rotate(-45)"/>
        <rect class="cls-1" x="89.78" y="101.17" width="9.92" height="2.23" rx="1.11" ry="1.11" transform="translate(-44.57 96.95) rotate(-45)"/>
      </g>
      <g>
        <rect class="cls-1" x="111.31" y="104.59" width="2.23" height="9.92" rx="1.11" ry="1.11"/>
        <rect class="cls-1" x="106.96" y="104.6" width="2.23" height="9.92" rx="1.11" ry="1.11"/>
      </g>
      <g>
        <rect class="cls-1" x="124.61" y="97.24" width="2.23" height="9.92" rx="1.11" ry="1.11" transform="translate(-35.45 118.84) rotate(-45)"/>
        <rect class="cls-1" x="121.54" y="100.32" width="2.23" height="9.92" rx="1.11" ry="1.11" transform="translate(-38.52 117.57) rotate(-45)"/>
      </g>
      <g>
        <rect class="cls-1" x="124.97" y="86.49" width="9.92" height="2.23" rx="1.11" ry="1.11"/>
        <rect class="cls-1" x="124.98" y="90.84" width="9.92" height="2.23" rx="1.11" ry="1.11"/>
      </g>
      <g>
        <rect class="cls-1" x="117.62" y="73.19" width="9.92" height="2.23" rx="1.11" ry="1.11" transform="translate(-16.64 108.44) rotate(-45)"/>
        <rect class="cls-1" x="120.7" y="76.26" width="9.92" height="2.23" rx="1.11" ry="1.11" transform="translate(-17.91 111.52) rotate(-45)"/>
      </g>
    </g>
    <g>
      <path class="cls-1" d="M109.73,89.29l-.82,3.84-1.62-2.18.25-2.82-.57,2.41-1.54-2.07.17-2.05-.07.13-.38,1.55-2.39-3.14,2.19,3.34c.03.09-.25.06-.31.06-.36-.02-.73-.08-1.09-.11l-.35.04,2.02.44,1.41,2.1-.05.05-2.47-.23,2.83.64,1.56,2.28-3.94-.38-.05.06,4.32.89,1.34,1.88s-.02.06-.06.08c-.1.04-.39.08-.51.11-3.78.68-6.7-2.02-7.7-5.47-.68-2.35-.74-4.91-.53-7.34,2.07.28,4.09.97,5.97,1.87,4.06,1.93,5.78,4.99,3.86,9.36-.14.33-.31.66-.49.97l-1.4-1.92.43-4.36Z"/>
      <path class="cls-1" d="M115.24,92.7c-.35.36-.67.77-1.02,1.13-.03.04-.05.07-.11.06l-.33-2.26.07,2.57-.94,1.03c-1.22-2.19.02-4.45,2.02-5.58,1.25-.7,2.77-1.1,4.19-1.27.1,1.16,0,2.33-.24,3.47-.49,2.48-1.74,4.15-4.49,3.87-.25-.03-.86-.12-1.07-.21-.04-.02-.06,0-.04-.06l.89-1.02,2.58-.35c0-.06-.08-.03-.13-.04-.19,0-.4,0-.59,0-.43.01-.88.02-1.32.04-.06,0-.27.09-.24-.02l1.02-1.21,1.64-.24c0-.1-.14,0-.16,0h-1.26l.99-1.19,1.13-.2h-.95l1.46-1.79s-.22.16-.26.2c-.47.48-.89,1.01-1.37,1.48l-.05-.09-.15-.86v1.15l-1.04,1.11-.24-1.42c-.11.03,0,.24,0,.27v1.42Z"/>
    </g>
  </g>
</svg>