<svg width="85" height="85" viewBox="0 0 85 85" fill="none" xmlns="http://www.w3.org/2000/svg">
<g clip-path="url(#clip0_8_84)">
<path d="M18.5989 56.1506L17.9892 56.9432L17.9892 56.9432L18.5989 56.1506ZM41.8487 45.1837L42.3873 46.0262L41.8487 45.1837ZM66.5909 12.7577L65.8226 13.3979L65.8226 13.3979L66.5909 12.7577ZM68.0662 12.8246L67.3591 12.1175L68.0662 12.8246ZM54.9843 44.3821L55.9831 44.4311L54.9843 44.3821ZM54.0548 43.3978L54.0332 44.3976L54.0548 43.3978ZM34.7017 24.902L34.1659 24.0576L34.7017 24.902ZM35.7714 24.9903L35.1033 25.7344L35.7714 24.9903ZM15.7494 43.3512L15.8474 44.3464L15.7494 43.3512ZM14.9409 44.0772L15.9217 44.2724L14.9409 44.0772ZM34.5702 4.12851L33.9023 3.38425L34.5702 4.12851ZM33.9023 3.38425C28.5085 8.2246 21.0581 16.2433 14.9481 25.4404C8.85505 34.6117 4 45.0956 4 54.8345H6C6 45.6908 10.5913 35.6126 16.614 26.5471C22.6196 17.5073 29.9544 9.61434 35.2381 4.87277L33.9023 3.38425ZM4 54.8345C4 67.2155 9.03242 74.8742 15.5327 79.3986C21.976 83.8834 29.7646 85.2258 35.2686 85.2258V83.2258C30.025 83.2258 22.6793 81.9361 16.6752 77.7571C10.7281 73.6177 6 66.5807 6 54.8345H4ZM35.2686 85.2258C40.8644 85.2258 48.218 83.0677 54.1877 78.2014C60.1917 73.3072 64.7825 65.681 64.7825 54.8345H62.7825C62.7825 65.0445 58.4901 72.1139 52.924 76.6512C47.3237 81.2164 40.4203 83.2258 35.2686 83.2258V85.2258ZM64.7825 54.8345C64.7825 45.3248 60.115 34.9623 54.3324 25.8075C48.5318 16.6243 41.5185 8.51617 36.639 3.48135L35.2028 4.87324C40.0173 9.84091 46.9348 17.841 52.6415 26.8756C58.3662 35.9387 62.7825 45.9035 62.7825 54.8345H64.7825ZM36.2686 75.0136V60.5373H34.2686V75.0136H36.2686ZM22.62 52.2559C24.4672 52.9815 27.1691 54.2265 29.531 55.6853L30.582 53.9837C28.0945 52.4474 25.2799 51.152 23.3513 50.3944L22.62 52.2559ZM29.531 55.6853C30.9153 56.5404 32.1419 57.444 33.0102 58.3322C33.9084 59.2509 34.2686 59.9951 34.2686 60.5373H36.2686C36.2686 59.1883 35.4397 57.9562 34.4403 56.934C33.411 55.8812 32.0316 54.8791 30.582 53.9837L29.531 55.6853ZM15.8474 44.3464C18.4655 44.0885 21.9943 44.3524 24.7361 45.8523C26.0901 46.593 27.2372 47.6259 28.0123 49.0396C28.7871 50.4527 29.2265 52.3126 29.0588 54.7664L31.0542 54.9027C31.2433 52.1346 30.7546 49.881 29.766 48.078C28.7777 46.2756 27.3262 44.9896 25.696 44.0977C22.4695 42.3326 18.488 42.0766 15.6514 42.356L15.8474 44.3464ZM13.9601 43.8821C13.6377 45.5026 13.483 47.8438 13.9755 50.2313C14.4698 52.6278 15.6309 55.1291 17.9892 56.9432L19.2086 55.3579C17.3303 53.9131 16.3606 51.8944 15.9342 49.8273C15.506 47.7512 15.6406 45.6852 15.9217 44.2724L13.9601 43.8821ZM17.9892 56.9432C21.0958 59.3328 23.9885 59.51 26.3057 58.7452C28.5499 58.0044 30.1476 56.4188 30.8679 55.419L29.2451 54.25C28.7013 55.0049 27.4216 56.2707 25.6788 56.846C24.0089 57.3972 21.8049 57.355 19.2086 55.3579L17.9892 56.9432ZM34.1659 24.0576C31.2641 25.8987 26.3724 30.6579 26.3724 37.7262H28.3724C28.3724 31.6181 32.6348 27.3976 35.2374 25.7464L34.1659 24.0576ZM36.2686 60.5373V45.1837H34.2686V60.5373H36.2686ZM36.2686 45.1837V35.9715H34.2686V45.1837H36.2686ZM26.3724 37.7262C26.3724 41.5406 27.816 43.8696 29.7997 45.1219C31.7118 46.3289 33.9561 46.4271 35.4401 46.1689L35.0971 44.1985C33.949 44.3983 32.2453 44.3005 30.8673 43.4306C29.5609 42.606 28.3724 40.9772 28.3724 37.7262H26.3724ZM35.1446 46.176C36.4999 46.3454 38.517 46.1268 40.1749 44.8595C41.8896 43.5488 43.0361 41.2599 42.8473 37.6736L40.8501 37.7788C41.0123 40.8604 40.0385 42.4464 38.9603 43.2706C37.8253 44.1382 36.3769 44.3144 35.3926 44.1914L35.1446 46.176ZM42.8473 37.6736C42.5048 31.1662 38.7253 26.2986 36.4395 24.2462L35.1033 25.7344C37.137 27.5604 40.5442 31.9672 40.8501 37.7788L42.8473 37.6736ZM53.9855 44.333C53.8954 46.1697 53.5345 48.7297 52.6987 51.163C51.8571 53.6133 50.578 55.8086 48.737 57.0831L49.8754 58.7275C52.2197 57.1045 53.6859 54.4458 54.5903 51.8126C55.5005 49.1624 55.886 46.4095 55.9831 44.4311L53.9855 44.333ZM46.7355 50.399C44.361 51.3664 40.5527 53.2271 37.8042 55.3606L39.0305 56.9405C41.5751 54.9653 45.196 53.1859 47.4901 52.2512L46.7355 50.399ZM37.8042 55.3606C36.8515 56.1002 35.9901 56.8998 35.3588 57.7361C34.7341 58.5636 34.2686 59.5152 34.2686 60.5373H36.2686C36.2686 60.125 36.4626 59.5933 36.955 58.9411C37.4407 58.2977 38.1537 57.6211 39.0305 56.9405L37.8042 55.3606ZM48.737 57.0831C46.7479 58.4601 44.786 58.4904 43.0934 57.9694C41.3608 57.4361 39.9258 56.3229 39.1572 55.4778L37.6775 56.8234C38.6376 57.8791 40.3659 59.2225 42.505 59.8809C44.6842 60.5517 47.3023 60.5089 49.8754 58.7275L48.737 57.0831ZM54.0764 42.398C52.2805 42.3593 49.8079 42.4065 47.4544 42.6689C45.1564 42.9252 42.7753 43.4045 41.3101 44.3411L42.3873 46.0262C43.4227 45.3644 45.379 44.9127 47.676 44.6566C49.9176 44.4066 52.2977 44.3601 54.0332 44.3976L54.0764 42.398ZM41.3101 44.3411C39.3198 45.6133 38.0436 47.8388 37.4191 50.0684C36.7966 52.2909 36.7637 54.7231 37.4899 56.5245L39.3448 55.7766C38.8331 54.5072 38.8002 52.5527 39.345 50.6078C39.8878 48.67 40.9462 46.9474 42.3873 46.0262L41.3101 44.3411ZM64.3303 11.6071L65.8226 13.3979L67.3591 12.1175L65.8667 10.3267L64.3303 11.6071ZM68.7733 13.5317L73.2631 9.04195L71.8489 7.62773L67.3591 12.1175L68.7733 13.5317ZM65.8226 13.3979C66.5755 14.3014 67.9417 14.3633 68.7733 13.5317L67.3591 12.1175L67.3591 12.1175L65.8226 13.3979ZM55.9831 44.4311C56.0378 43.3169 55.1561 42.4213 54.0764 42.398L54.0332 44.3976C54.0281 44.3974 54.0155 44.3939 54.0046 44.3824C53.9994 44.3769 53.9941 44.3692 53.9903 44.3591C53.9862 44.3483 53.9853 44.3386 53.9855 44.333L55.9831 44.4311ZM35.2374 25.7464C35.2203 25.7572 35.1959 25.7641 35.1696 25.7619C35.1433 25.7598 35.1194 25.7488 35.1033 25.7344L36.4395 24.2462C35.8066 23.678 34.8811 23.6039 34.1659 24.0576L35.2374 25.7464ZM15.6514 42.356C14.8221 42.4377 14.127 43.0434 13.9601 43.8821L15.9217 44.2724C15.9178 44.292 15.9063 44.3119 15.8906 44.3259C15.8755 44.3395 15.8591 44.3453 15.8474 44.3464L15.6514 42.356ZM35.2381 4.87277C35.2399 4.87114 35.2383 4.87301 35.2332 4.87484C35.2286 4.87648 35.2235 4.87726 35.2186 4.87708C35.2136 4.8769 35.2091 4.87578 35.2054 4.87415C35.2013 4.87231 35.2005 4.87088 35.2028 4.87324L36.639 3.48135C35.8989 2.71764 34.6987 2.6696 33.9023 3.38425L35.2381 4.87277Z" fill="white"/>
<path d="M69.8238 2.54876L71.1192 4.14848C71.6839 4.84579 72.531 5.25375 73.4283 5.26045L75.4866 5.27583C76.1226 5.28058 76.5926 5.86996 76.4557 6.49104L76.0127 8.50123C75.8196 9.37747 76.0288 10.2941 76.583 10.9998L77.8543 12.6187C78.2471 13.1189 78.0794 13.8538 77.5085 14.134L75.6606 15.041C74.8551 15.4363 74.2689 16.1715 74.0627 17.0447L73.5897 19.0481C73.4435 19.667 72.7643 19.9941 72.1893 19.7225L70.3281 18.8432C69.5168 18.4599 68.5765 18.4599 67.7652 18.8432L65.904 19.7225C65.329 19.9941 64.6498 19.667 64.5037 19.0481L64.0306 17.0447C63.8244 16.1715 63.2382 15.4363 62.4327 15.041L60.5849 14.134C60.0139 13.8538 59.8462 13.1189 60.239 12.6187L61.5104 10.9998C62.0645 10.2941 62.2738 9.37747 62.0806 8.50123L61.6376 6.49104C61.5007 5.86997 61.9707 5.28058 62.6067 5.27583L64.6651 5.26045C65.5623 5.25375 66.4095 4.84579 66.9741 4.14848L68.2695 2.54876C68.6697 2.05451 69.4236 2.05451 69.8238 2.54876Z" stroke="white" stroke-width="2"/>
</g>
<defs>
<clipPath id="clip0_8_84">
<rect width="85" height="85" fill="white"/>
</clipPath>
</defs>
</svg>
