<?xml version="1.0" encoding="UTF-8"?>
<svg id="Capa_1" xmlns="http://www.w3.org/2000/svg" version="1.1" viewBox="0 0 16 16">
  <!-- Generator: Adobe Illustrator 29.8.1, SVG Export Plug-In . SVG Version: 2.1.1 Build 2)  -->
  <defs>
    <style>
      .st0 {
        fill: #fff;
      }
    </style>
  </defs>
  <path class="st0" d="M16,8c0,4.4-3.6,8-8,8S0,12.4,0,8,3.6,0,8,0s8,3.6,8,8M6.8,5.1c-.2-.2-.5-.1-.7.1,0,0,0,.2,0,.3v5c0,.3.2.5.5.5.1,0,.2,0,.3,0l3.5-2.5c.2-.2.3-.5.1-.7,0,0,0,0-.1-.1l-3.5-2.5Z"/>
</svg>