<?xml version="1.0" encoding="UTF-8"?>
<svg id="Capa_2" data-name="Capa 2" xmlns="http://www.w3.org/2000/svg" viewBox="0 0 367.12 397.72">
  <defs>
    <style>
      .cls-1 {
        fill: #fff;
      }
    </style>
  </defs>
  <g id="Capa_1-2" data-name="Capa 1">
    <path class="cls-1" d="M56.47,57.14C141.71-39,300.1-9.04,344.07,111.2c49.24,134.65-78.74,266.34-214.79,220.79C14.34,293.5-24.22,148.13,56.47,57.14ZM118.05,229.72v14.5l-42.98,43c25.61,24.4,66.1,43.15,101.94,43.09,1.17,0,1.29-.07,2.04-1.09v-41c-17.86-15.73-47.08-23.78-53.51-49.49-2.33-9.31-2.9-42.75-1.58-52.58.26-1.92,2.09-1.36,2.12-2,.08-1.6-1.89-5.91-2.07-8.89-.88-15.03.73-30.91.03-46.03h2.02c-4.29-17.59-.98-36.89-2.02-55l31.48,19.5,7.66-20.36c6.79-11.36,12.68-23.25,19.38-34.66.62-1.06-.12-2.44,1.97-1.98,6.28,13.62,16.56,27,22.37,40.65,2.29,5.38,3.27,11.07,5.66,16.36l31.48-19.5c-.33,33.87.14,67.18.03,101.03,0,2.77-1.76,6.1-1.57,7.96,1.5,14.67,2.64,30.9,1.58,46.05-2.38,33.87-32.91,40.46-55.05,58.95v41.5c124.26-2.44,197.76-143.31,128.41-247.91-1.96-2.95-14.83-20.37-16.78-20.02l-50.63,48.93.94-14.55,41.98-42.81C222.64-12.57,109.2-.8,53.66,77.83c-43.94,62.2-38.51,146.63,13.89,201.87l50.5-49.98ZM185.03,58.73l-2.06.62c-6.79,13.29-15.65,25.48-17.02,40.88l.3,1.3c7.47,3.64,12.72,10.49,17.32,17.19l18.59-18.49c-1.14-15.59-10.67-27.94-17.12-41.5ZM179.05,163.72v-26.5c0-15.66-19.28-28.02-30.69-35.31-4.48-2.86-9.37-6.36-14.31-8.19v24.5c0,6.09,4.99,16.32,8.98,21.02,5.38,6.35,24.93,19.21,32.73,23.27,1.12.58,1.75,1.57,3.29,1.21ZM234.05,93.72c-1.54-.36-2.18.62-3.29,1.21-10.1,5.26-31.52,19.38-36.87,29.13-1.57,2.87-4.83,11.27-4.83,14.17v25.5c1.54.36,2.18-.62,3.29-1.21,15.38-8.02,41.71-24.8,41.71-44.29v-24.5ZM179.05,218.72v-25.5c0-18.26-27.24-35.76-41.71-43.29-1.12-.58-1.75-1.57-3.29-1.21v24.5c0,19.54,26.31,36.25,41.71,44.29,1.12.58,1.75,1.57,3.29,1.21ZM234.05,148.72c-1.54-.36-2.18.62-3.29,1.21-14.27,7.44-41.71,25.27-41.71,43.29v25.5c1.54.36,2.18-.62,3.29-1.21,15.4-8.02,41.71-24.77,41.71-44.29v-24.5ZM179.05,273.72v-25.5c0-18.64-24.26-32.46-38.08-40.92-2.09-1.28-4.56-3.1-6.92-3.58v24.5c0,19.62,26.22,36.2,41.71,44.29,1.12.58,1.75,1.57,3.29,1.21ZM234.05,203.72c-1.5-.32-2.19.55-3.31,1.19-15.3,8.76-41.69,24.43-41.69,44.31v24.5c2.17,0,4.1-1.54,5.92-2.58,15.1-8.66,39.08-23.21,39.08-42.92v-24.5Z"/>
    <path class="cls-1" d="M210.91,354.86l3.14,40.85c-2.26-.42-7.1.76-8.79-.21-1.1-.63-12.94-17.41-15.25-20.24-1.29-1.57-2.82-4.8-4.96-4.54l2,25.99-9.01,1.01-1.98-40.99c1.92.46,4.17-.79,5.72-.77,3.76.05,17.83,22.51,22.25,25.75l-1-27,7.86.14Z"/>
    <path class="cls-1" d="M294.05,350.7l14,9.51-7.34,4.31c-7.57-3.92-10.66-11.81-19.52-4.65l5.87,12.83-7.98,4.02-18.95-36.93c7.73-2.09,18.13-12.42,26.19-10.87,8.97,1.73,14.29,14.77,7.75,21.78ZM276.13,353.65c7.7.21,19.11-11.23,8.68-16.2-5.34-2.54-8.56,3.61-13.69,4.35l5.01,11.85Z"/>
    <path class="cls-1" d="M14.35,310.4c4.01,3.34,7.5-1.69,10.61-4.18l-4.96-7.02c-.32-1.43,3.07-3.46,3.58-3.42.82.07,9.04,11.34,9.35,13.3-.18.91-13.59,11.24-14.62,11.46C11.42,321.99-.22,303.86,0,297.25c.33-9.61,11.3-19.57,20.54-20.53,13.78-1.43,19.88,8.76,25.39,19.52l-5.38,4.46c-5.75-13.98-18.83-23.75-30.04-8.02-4.26,5.98-1.34,13.42,3.83,17.72Z"/>
    <path class="cls-1" d="M84.74,359.41c4.41-4.79,9.59-17.66,13.33-23.69l7.93,4.48c-9.67,13.26-14.8,38.6-36.48,26.55-22.05-12.27-3.1-30.61,5.13-44.96,2.48.85,6.81,1.86,6.28,5.21-.75,4.71-11.63,16.71-13.22,23.95-1.89,8.6,11.6,14.36,17.04,8.46Z"/>
    <path class="cls-1" d="M341.05,280.74c1.14,1.56-10.59,13.42-12.03,15.45-.61.87-1.7,1.38-.5,2.56l7.04,5.96c1.83,0,8.95-11.42,10.96-13.04,2.46-1.99,3.37.45,5.09,2.09,1.45,3.44-8.34,10.84-9.58,14.47l7.55,7.45,12.98-15.93,4.45,3.61c.4,1.32-.23,1.95-.89,2.92-1.42,2.1-15.49,19.03-16.73,19.36-1.15.3-2.06-.02-2.86-.86l-28.36-24.69,17.9-21.9,4.99,2.57Z"/>
    <path class="cls-1" d="M172.06,355.72l-1.01,7-20.99-3.01-.59,10.07,17.54,2.97c.07,1.08.28,2.43.04,3.45-1.3,5.72-14.44-.12-18.91.59l-1.09,10.92,19.05,2.46-.09,6.49-28.96-3.96,6.01-41,29,4.01Z"/>
    <path class="cls-1" d="M313.69,303.79l4.29,4.29-14.85,14,6.41,7.46c1.9,0,10.42-9.34,12.51-10.34,3.12-1.48,5.53,2.12,4.54,4.49s-12.25,9.42-12.53,10.6l7.03,8.04,15.45-12.55,3.53,4.44c0,2.48-18.4,15.85-21.53,18.54l-26.46-30.54,21.59-18.43Z"/>
    <polygon class="cls-1" points="257.04 341.71 258.07 348.2 240.05 353.72 243.07 364.72 260.04 358.71 262.07 365.2 245.47 370.67 250.06 387.71 242.06 389.72 230.12 351.35 257.04 341.71"/>
    <path class="cls-1" d="M140.05,350.73l-2.47,6.85-11.52-3.86-10.51,31.02c-1.97,2.5-5.99-1.01-8.51-1.02l11.05-32.42-12.05-4.59,2.02-5.99,31.99,10.01Z"/>
    <path class="cls-1" d="M56.92,304.85c.61,1.05,0,2.55-.81,3.43l-20.97,23.08,13.85,14-4.29,4.29-20.46-18.42,26.34-30.51,6.34,4.13Z"/>
  </g>
</svg>