<?xml version="1.0" encoding="UTF-8"?>
<svg id="Capa_2" data-name="Capa 2" xmlns="http://www.w3.org/2000/svg" viewBox="0 0 812.27 808.25">
  <defs>
    <style>
      .cls-1 {
        fill: #fff;
      }
    </style>
  </defs>
  <g id="Capa_1-2" data-name="Capa 1">
    <path class="cls-1" d="M681.4,155.78c13.42,6.76,47.54-5.09,55.03,11.48,6.7,14.85-13.47,43.89-8.74,51.74,4.13,6.84,43.64,4.15,49.7,19.28,7.13,17.82-20.88,41.12-18.02,50.99s44.93,13.23,44.91,33.22c-.01,15.75-30.07,33.39-29.11,42.96s37.55,19.67,37.1,39.06c-.42,17.97-36.22,29.3-37.1,38.02-.92,9.17,29.1,27.31,29.11,42.96.02,20.09-42.18,23.67-44.91,33.23s25.89,35.14,18.04,50.99c-7.66,15.47-45.53,12.33-49.71,19.27-6.27,10.4,25.72,48.59.2,59.21-9.84,4.09-42.28-.82-46.46,4.05-3.23,3.77,1.38,22.58,1.75,28.27.39,6.18.68,14.8-1.5,20.48-7.27,18.98-38.63,2.41-52.15,2.08-6.14-.15-6.89,2.68-8.06,7.71-3.41,14.74,2.18,48.63-21.75,47.23-10.51-.61-37.12-18.44-43.55-14.52-8.22,10.74-9.49,42.74-23.94,47.05-18.11,5.41-38.49-25.02-48.49-23.57-8.16,1.18-17.99,36.55-31.51,40.57-17.99,5.35-29.45-21.28-41.02-30.06-6.44-4.89-8.67-1.09-13.55,3.49-10.31,9.67-22.61,34.3-40.17,25.22-10.96-5.66-21.59-38.51-28.84-39.23-10.37-1.03-29.06,27.67-47.73,23.8-16.26-3.37-18.11-45.33-25.42-47.58-9.58-2.95-32.31,16.43-46.71,14.73-19.53-2.3-14.71-34.47-18.04-47.97-2.26-9.16-7.07-7-14.76-5.65-10.89,1.91-23.71,7.65-34.85,5.26-22.55-4.83-5.97-42.46-10.15-57.34-13.98-6.88-46.83,5.3-55.01-11.5-7.08-14.56,13.56-43.69,8.72-51.72-3.1-5.14-37.23-6.02-46.74-14.97-14.3-13.46,10.44-37.3,14.46-50.3,1.96-6.34-.11-7.59-5.19-10.26-11.82-6.2-39.63-11.75-39.08-28.93.46-14.53,29.97-33.07,29.08-42-.72-7.12-32.16-20.39-36.26-32.8-7.15-21.62,27.51-29.76,36.26-44.27.92-9.17-29.11-27.32-29.11-42.96,0-20.11,42.2-23.76,44.91-33.22,2.96-10.32-25.26-32.91-18.03-50.98,6.04-15.09,45.61-12.49,49.7-19.28,4.78-7.93-15.71-37.37-8.72-51.72,8.18-16.8,41.03-4.62,55.01-11.5,3.36-15.15-6-33.85-.28-48.77,7.29-19.04,39.4-2.13,53.13-2.09,5.39.02,6.1-3.47,7.08-7.71,3.41-14.7-2.04-48.62,21.75-47.23,11.31.66,35.9,18.2,43.54,14.51,6.55-3.17,8.69-43,23.96-47.03,18.97-5,37.71,24.68,48.51,23.54S345.61-3.6,368.46.24c13.92,2.34,29.12,32.38,37.33,32.77S429.83,3.32,443.14.44c18.97-4.1,25.48,22.13,34.03,34.08,3.47,4.84,4.77,8.24,11.37,5.31,13.69-6.08,32.73-33.63,49.15-18.83,8.72,7.86,13.79,42.03,19.17,43.84,9.01,3.04,32.57-16.43,46.74-14.76,20.76,2.44,13.66,37.03,18.62,50.4,1.09,2.95,3.11,4.46,6.34,4.44,14.49-.06,41.65-15.93,52.09.12,7.98,12.28-3.91,44.4.75,50.74ZM604.1,63.11c-16.5-1.05-34.15,19.06-50.73,14.22s-15.24-36.64-25.11-47.81c-19.68,4.33-39.1,40.2-59.04,15.96-4.48-5.45-16.93-33.14-22.52-33.14-6.83,0-24.17,33.2-40.03,33.71s-34.69-35.11-41.56-33.6c-13.97,9.23-18.39,45.15-39.96,41.1-14.81-2.78-25.9-20.06-40.32-24.4-6.31,1.19-10.84,37.68-20.69,45.3-14.55,11.27-34-7.29-48.12-10.76-7.36-1.81-7.98-.57-9.54,6.09-2.95,12.62.75,36.81-11.33,44.67-14.17,9.22-37.41-7.01-52.48-2.48-3.85,3.81,1.14,23.52,1.51,29.54,1.15,18.45-1.61,27.57-21.62,29.36-6.52.58-32.2-3.24-34.88,2.12-4.49,8.96,17.42,36.91,7.71,52.71-8.1,13.19-46.99,10.72-49.07,18.99-1.56,6.22,19.63,30.71,19.94,42.81.54,20.87-33.97,22.1-44.95,34.21-1.49,5.24,11.86,16.18,15.38,20.28,4.64,5.4,12.28,13.66,13.27,20.77,2.36,16.91-25.13,26.78-34.82,36.7-1.2,1.22-2.93,3.07-2.76,4.88.79,8.51,37.28,21.14,37.84,38.19.39,12.12-15.85,24.46-23.02,33-4.72,5.63-9.62,9.35-1.72,14.67,12.03,8.1,41.27,11.17,40.77,30.31-.32,12.29-21.51,36.56-19.94,42.81,2.08,8.27,40.97,5.8,49.07,18.99,5.24,8.53,1.68,17.68-.92,26.49-1.62,5.48-9.89,22.48-6.38,26.82s27.59.92,34.47,1.53c20.16,1.78,22.72,10.69,21.62,29.36-.36,6.03-5.3,25.79-1.52,29.54,16.11,4.94,44.94-15.69,56.96,2.04,6.64,9.8,4.23,43.21,9.55,46.45,7.95,4.84,34.74-19.83,51.26-13.26,15.24,6.07,13.54,37.06,24.39,47.55,15.09-3.95,31.42-29.04,48.21-24.13,14.61,4.27,19.93,32.31,31.65,41.04,18.89-9.24,29.46-47.59,54.99-27.69,5.79,4.51,21.48,26.34,26.08,27.01,3.3.48,5.04-1.78,6.87-4.11,8.49-10.77,14.2-35.36,30.19-36.89,14.76-1.41,37.45,26.1,44.49,24.48,2.67-.62,4.3-5.12,5.37-7.54,5.42-12.29,7.09-39.53,24.03-40.99,14.26-1.23,37.35,17.39,45.79,14.83,2.56-.77,2.67-3.65,3.24-5.78,3.42-12.72-.75-37.51,11.51-45.49,14.09-9.17,43.45,7.98,51.96,2.96,4.66-2.75-.67-24.44-1-30.02-1.14-19.28,1.87-28.03,22.61-29.36,6.39-.41,31.1,3.38,33.89-2.12,4.52-8.94-17.51-36.77-7.72-52.72,8.19-13.33,46.98-10.67,49.07-18.99,1.54-6.15-19.63-30.64-19.94-42.81-.5-19.15,28.77-22.22,40.77-30.31,1.68-1.13,4.16-2.5,4.35-4.74.69-8.05-29.61-27.26-29.09-42.92.58-17.54,36.18-28.73,37.84-38.21,1.33-7.62-36.23-21.61-37.75-37.94-.71-7.63,6.65-16.82,11.44-22.39,3.65-4.25,18.06-16.31,17.54-21.45-.59-5.81-27.23-13.99-33.33-17.74-28.9-17.74,4.91-39.96,8.23-61.16-13.18-9.48-47.43-3.8-51.48-23.58-1.35-6.61,1.37-14.42,3.27-20.85,1.61-5.44,9.9-22.54,6.39-26.82-10.95-5.13-22.96-.52-34.47-1.52-20.09-1.75-22.78-10.72-21.62-29.36.35-5.55,5.72-27.24,1-30.02-8.76-5.17-38.22,12.66-52.52,2.52-12.63-8.95-6.85-37.59-12.59-50.9Z"/>
    <path class="cls-1" d="M385.99,79.29c263.47-14.27,437,272.39,295.62,497.62-137.26,218.67-464.05,196.79-571.27-37.56C15.86,332.87,159.86,91.54,385.99,79.29ZM385.99,84.29C175,96.14,33.61,311.73,104.45,511.25c84.19,237.13,398.59,288.55,554.15,89.65,170.34-217.81,1.88-532.01-272.6-516.6Z"/>
    <polygon class="cls-1" points="527.2 221.01 463.59 288.78 374.2 267.99 436.89 197.16 527.2 221.01"/>
    <polygon class="cls-1" points="327.19 403.99 251.34 352.32 262.2 256 334.68 312.01 335.18 319.49 327.19 403.99"/>
    <polygon class="cls-1" points="493.21 382 470.42 296.25 470.39 291.71 532.19 224 561.05 311.3 493.21 382"/>
    <polygon class="cls-1" points="485.19 381.99 392.38 363.82 373.2 274 460.71 294.98 485.19 381.99"/>
    <path class="cls-1" d="M355.2,273.99l7.81,1.19,4.18,19.8c-6.2.42-22.2,11.36-27.28,9.85l-70.71-54.82,85.51-40.74,31.35,27.36-30.86,37.36Z"/>
    <path class="cls-1" d="M369.19,300.99l14.46,71.05c.88,1.22,12.78,2.62,15.55,3.47.95.29,2.28.17,1.99,1.48l-68.99,27.01,10.15-91.34,26.84-11.66Z"/>
    <path class="cls-1" d="M440.2,457h-16.5c-.72,0-5.91-7.32-10.94-9.07-24.05-8.36-40.24,16.92-29.96,37.97,9.45,19.35,41.38,16.81,44.4-5.9h-27v-12h43v15.5c0,10.61-17.87,25.65-27.79,28.21-45.91,11.81-70.9-46.59-35.53-72.53,19.32-14.17,55.46-7.87,60.33,17.83Z"/>
    <path class="cls-1" d="M573.7,433c26.39,3.53,28.94,40.59,3.48,47.52l18.02,31.48h-17.5c-4.23-3.75-15.09-29.27-17.7-30.78-1.48-.85-6.69-.59-7.8,1.28v29.5h-16v-79c11.7,1.13,26.14-1.52,37.5,0ZM552.2,469h19.5c6.27,0,9.22-15.39,4.03-20.03-.73-.65-5.49-2.97-6.03-2.97h-17.5v23Z"/>
    <path class="cls-1" d="M406.2,611h-17.5l-17.66-30.84-7.84-.16v31h-16v-79h38.5c2.27,0,10.44,4.67,12.51,6.49,9.69,8.55,9.81,26.51.02,35.04-3.06,2.67-7.18,3.17-9.97,6.07l17.94,31.4ZM381.7,545c-4.88-1.08-13.17.79-18.5,0v23h17.5c9.27,0,12.67-20.41,1-23Z"/>
    <path class="cls-1" d="M525.2,512h-17c-1.3-4.45-2.14-14.45-7.44-15.06-8.55-.98-19.13.72-27.92.19l-5.64,14.86h-17l29.46-79.07,18.06,1.05,27.48,78.02ZM487.21,452.01l-10.98,31.5c.61.84.91,1.06,1.95,1.23,4.53.74,14.31-2.7,19.56.11l1.31-2.17-11.84-30.68Z"/>
    <path class="cls-1" d="M303.2,433v50.5c0,.59,1.65,5.94,2.09,6.91,5.02,11.08,23.51,11.1,28.79.97.46-.88,2.12-6.29,2.12-6.88v-51.5h16v52.5c0,9.78-8.55,20.87-17.31,24.69-21.42,9.34-47.69-2.57-47.69-27.69v-49.5h16Z"/>
    <path class="cls-1" d="M273.2,454h-18c-.4,0,.3-4.06-3.65-6.84-12.11-8.54-28.44,7.22-10.7,15.7,12.42,5.94,31.41,5.85,33.24,23.76,3,29.26-42.09,35.19-54.3,14.3-1.09-1.87-5.78-11.91-2.09-11.91h15.5c.59,15.64,27.34,14.47,23.79-1.29-2.67-11.88-33.62-7.48-39.31-25.7-11.11-35.61,52.99-42.14,55.51-8.02Z"/>
    <path class="cls-1" d="M466.2,544h-30v20h25.5c3,3.18.92,8.85,1.5,13h-27v21h30v13h-46v-78.5l2.49-1.54,42.04.34c2.73.5,1.02,10.18,1.47,12.7Z"/>
    <path class="cls-1" d="M527.2,544h-29.5l-1.26,1.46-.24,18.54h27v13h-26l-1,21h31v13h-46v-80h44.5c3,3.18.92,8.85,1.5,13Z"/>
    <polygon class="cls-1" points="336.2 532 336.2 544 303.7 544 302.2 545.5 302.2 563.5 303.7 565 328.2 565 327.22 577.56 302.2 578 302.2 611 286.2 611 286.2 532 336.2 532"/>
    <path class="cls-1" d="M512.19,669l.15,9.85,9.85,3.65-9.54,3.45.54,10.04c-1.53,1.86-4.91-6.26-6.67-6.87-3.16-1.09-7.27,1.99-10.32,2.87l4.98-9.52-5.99-8.47,10.35,3.07c.75-.12,3.66-5.66,4.42-6.77.6-.87-.17-1.87,2.22-1.3Z"/>
    <path class="cls-1" d="M302.18,669c.34.35,3.24,7.84,4.67,8.07l9.35-2.07-4.8,7.65,4.79,9.34c-3.01-.91-7.15-3.8-10.29-3.05-1.01.24-5.21,8.85-6.7,7.04l.54-10.04-9.54-3.45,9.85-3.65c.56-.88-.96-12.98,2.13-9.86Z"/>
    <path class="cls-1" d="M702.44,347.75c1.82,2.12,8.66.17,9.75,2.75l-8.52,4.44,1.51,10.06-8.46-5.98-8.53,3.97,3.84-9.35-6.84-7.63,10.85.83,3.65-8.83c2.32.95,1.16,7.9,2.75,9.75Z"/>
    <path class="cls-1" d="M463.37,693.84c.37.59,10.29,3.29,7.83,5.15l-8.75,1.25-2.75,9.75-4.44-8.52-10.05,1.52,5.94-8.49-3.95-8.49,9.36,3.83,7.63-6.84-.82,10.84Z"/>
    <path class="cls-1" d="M367.2,105.01c-6.07,6.99-7.51,8.74-2,16.98l-9.36-3.83-7.63,6.84.82-10.84-8.83-3.17c-1.64-1.49.15-1.77,1.51-1.96,2.03-.3,6.72.05,8.24-1.27,2.12-1.83.17-8.66,2.75-9.75l4.44,8.52,10.06-1.51Z"/>
    <path class="cls-1" d="M705.19,443l-1.52,10.05,8.52,4.44c-2.04,2.9-6.78.49-9.04,1.96-1.79,1.17-2.13,7.38-1.96,9.54-1.85,2.47-4.57-7.47-5.15-7.83l-10.85.83,6.84-7.63-3.83-9.36,8.49,3.95,8.49-5.94Z"/>
    <path class="cls-1" d="M141.2,509.99l-9.86.15-3.65,9.85-3.45-9.55-10.04.56c-1.77-1.77,6.19-4.7,6.86-6.67,1.09-3.16-1.99-7.27-2.87-10.32l9.34,4.79,8.65-5.8-2.89,10.34,7.9,6.65Z"/>
    <path class="cls-1" d="M694.2,494.01c-.88,3.05-3.96,7.15-2.87,10.32.6,1.75,8.72,5.14,6.87,6.67l-9.84-.83-3.65,9.83-3.65-9.85-9.85-.15c-.55-2.38.41-1.62,1.3-2.23,1.52-1.04,6.09-2.72,6.59-4.43l-1.89-9.34,7.65,4.8,9.34-4.79Z"/>
    <path class="cls-1" d="M131.34,297.86l9.86.15-8.08,6.64,2.07,9.34c-3.25-.02-4.56-4.51-7.65-4.79-2.69-.24-8.12,5.93-9.34,4.79.88-3.05,3.96-7.15,2.87-10.32-.62-1.8-8.71-5.09-6.87-6.67l9.83.82,3.66-9.82,3.65,9.85Z"/>
    <path class="cls-1" d="M462.45,107.76c1.84,1.59,8.79.42,9.75,2.75l-8.83,3.65.83,10.85-7.63-6.84-9.36,3.83,3.95-8.49-5.95-8.49,10.01,1.56,4.49-8.56c2.59,1.1.64,7.93,2.75,9.75Z"/>
    <path class="cls-1" d="M513.19,112.01l-.56,10.04,9.55,3.45-9.85,3.65-.64,9.85-6.16-8.07-9.35,2.07,4.8-7.65-4.79-9.34c3.05.88,7.15,3.96,10.32,2.87,1.97-.68,4.9-8.64,6.67-6.86Z"/>
    <path class="cls-1" d="M301.18,112.01l5.49,7.68,9.52-3.69c1.14,1.22-5.03,6.65-4.79,9.34.28,3.1,4.78,4.4,4.79,7.65l-9.34-2.07-6.64,8.08-.15-9.86c-.88-1.38-9.07-1.32-9.86-4.13l9.83-3.17-.84-9.32,2-.51Z"/>
    <path class="cls-1" d="M223.19,165l-1.88,9.34c.5,1.71,5.07,3.38,6.58,4.42.89.61,1.85-.16,1.3,2.23l-9.9.1-2.59,9.9-4.49-8.5-7.97.06-2.04-1.54c8.69-3.52,7.24-7.64,4.01-15.01l9.35,4.89,7.64-5.89Z"/>
    <path class="cls-1" d="M124.19,445l-3.83,9.36,6.84,7.63-10.85-.83c-.58.37-3.29,10.3-5.15,7.83.16-2.16-.18-8.37-1.96-9.54-2.26-1.47-6.99.93-9.04-1.96l8.56-4.49-1.56-10.01,8.46,5.98,8.52-3.98Z"/>
    <path class="cls-1" d="M698.19,297c1.74,1.61-6.78,5.62-7.04,6.7-.76,3.14,2.14,7.28,3.05,10.29l-9.34-4.79-7.65,4.8,2.07-9.35c-.23-1.45-12.25-5.94-6.6-6.65,2.72-.34,5.66.43,8.38-.14l3.65-9.85,3.45,9.53,10.04-.53Z"/>
    <path class="cls-1" d="M661.18,242c.66.66,2.18,7.13,4.69,7.89l9.31-1.9-6.01,8.49,4.01,8.51-9.29-2.84-6.69,6.85.56-10-9.56-4.98,10.53-2.97c.99-.57-.59-12.05,2.45-9.04Z"/>
    <path class="cls-1" d="M267.19,137l-2.84,9.29,6.85,6.69-10-.56-4.98,9.57-2.97-10.53-9.04-.46c-.55-2.38.41-1.62,1.3-2.23,1.57-1.07,6.02-2.66,6.59-4.44l-1.89-10.32,7.7,6.89,9.29-3.89Z"/>
    <path class="cls-1" d="M153.19,242l.46,9.04,10.53,2.97-9.57,4.98.56,10-6.69-6.85-9.29,2.84,4.01-8.51-6.01-7c-.22-2.63.44-.97,1.76-.77,2.52.38,4.97,1.36,7.55,1.18,1.79-.57,3.37-5.02,4.44-6.59.61-.89-.16-1.85,2.23-1.3Z"/>
    <path class="cls-1" d="M568.19,657c.55,2.38-.41,1.62-1.3,2.23-1.57,1.07-6.02,2.66-6.59,4.44-.18,2.58.8,5.03,1.18,7.55.2,1.32,1.86,1.98-.77,1.76l-7-6.01-8.51,4.01,2.84-9.29-6.85-6.69,10.05.52,4.44-8.52,3.47,9.53,9.03.47Z"/>
    <path class="cls-1" d="M271.2,655.01l-6.85,6.69,2.84,9.29-8.51-4.01-8.49,6.01,1.9-9.31c-.57-1.79-5.02-3.37-6.59-4.44-.89-.61-1.85.16-1.3-2.23l9.03-.47,2.97-10.53,4.98,9.56,10-.56Z"/>
    <path class="cls-1" d="M365.2,686.01c-5.51,8.24-4.07,9.99,2,16.98l-10.01-1.56-4.01,8.57c-3.55-1.28-.92-7.76-3.24-9.76-1.84-1.59-8.79-.42-9.75-2.75l8.83-3.65-.82-10.84,7.63,6.84,9.36-3.83Z"/>
    <path class="cls-1" d="M185.2,200.01l-.88,10.88,8.88,4.1-9.9,2.11-.1,9.9c-2.38.55-1.62-.41-2.23-1.3-1.04-1.52-2.71-6.09-4.42-6.58l-9.34,1.88,5.89-7.64-4.89-9.35,9.29,2.84,7.7-6.84Z"/>
    <path class="cls-1" d="M606.19,166l-2.85,9.27,6.85,7.72-10.88-.88-4.1,8.88-2.11-9.9-9.9-.1c-.55-2.38.41-1.62,1.3-2.23,1.52-1.04,6.09-2.71,6.58-4.42l-1.88-9.34,7.64,5.89,9.35-4.89Z"/>
    <path class="cls-1" d="M121.19,395l-5.05,8.55,5.05,9.45-9.3-2.87-6.68,7.87-.49-10.01c-2.22-2.17-5.37-2.16-8.05-2.96-1.44-.43-1.76.62-1.47-2.01l9.52-2.99.49-10.01,6.7,7.85,9.28-2.85Z"/>
    <path class="cls-1" d="M717.2,403c.29,2.63-.04,1.58-1.47,2.01-2.68.8-5.83.8-8.05,2.96l-.49,10.01-6.7-7.85-9.28,2.85c-1.09-1.16,5.06-6.91,4.98-9.52-.06-1.97-6.25-7.16-4.98-8.48l9.28,2.85,6.7-7.85.49,10.01,9.52,2.99Z"/>
    <path class="cls-1" d="M116.35,346.83l10.85-.83-6.84,7.63,3.83,9.36-9.45-4.03-7.53,6.03,1.51-10.06-8.52-4.44c1.1-2.59,7.93-.64,9.75-2.75,1.59-1.84.42-8.79,2.75-9.75l3.65,8.83Z"/>
    <path class="cls-1" d="M164.19,553.01l-10.51,3.97-.49,9.01c-2.38.55-1.62-.41-2.23-1.3-1.07-1.57-2.66-6.02-4.44-6.59l-9.31,1.9,6.01-8.49-4.01-8.51,9.29,2.84,6.69-6.85-.56,10,9.57,4.01Z"/>
    <path class="cls-1" d="M673.19,543l-4.01,8.51,6.01,8.49-9.31-1.88c-1.85.62-3.35,4.97-4.45,6.57-.61.89.16,1.85-2.23,1.3l-.47-9.03-9.53-3.47,8.52-4.44-.52-10.05,6.69,6.85,9.29-2.84Z"/>
    <path class="cls-1" d="M183.19,581l.1,9.9,9.9,2.11-8.88,4.1.88,10.88-7.72-6.85-9.27,2.85,4.89-9.35-5.89-7.64,9.34,1.88c1.71-.5,3.38-5.07,4.42-6.58.61-.89-.16-1.85,2.23-1.3Z"/>
    <path class="cls-1" d="M599.31,625.88l10.88-.88-6.84,7.7,2.84,9.29-9.35-4.9-7.63,5.9,1.88-9.34c-.5-1.71-5.07-3.38-6.58-4.42-.89-.61-1.85.16-1.3-2.23l9.9-.1,2.11-9.9,4.1,8.88Z"/>
    <path class="cls-1" d="M562.2,135.01l-1.88,9.31c.62,1.85,4.97,3.35,6.57,4.45.89.61,1.85-.16,1.3,2.23l-9.03.47-3.95,10.53-3.96-9.52-10.05.52,6.85-6.69-2.84-9.29,8.52,3.98,8.48-5.98Z"/>
    <path class="cls-1" d="M629.18,200.01c3.6,8.59,7.61,7.6,15.01,4l-4.89,9.35,5.89,7.64-9.34-1.88c-2.15.63-5.94,12.08-6.66,6.41-.34-2.68.38-5.72-.1-8.42l-9.9-2.11,8.88-4.1-.88-10.88h1.98Z"/>
    <path class="cls-1" d="M631.18,581c.66.65,2.19,7.11,4.67,7.89l9.34-1.88-5.89,7.64,4.89,9.36-9.27-2.86-7.72,6.85.88-10.88-8.88-4.1,9.9-2.11c.59-.68-1.1-13.07,2.08-9.9Z"/>
    <path class="cls-1" d="M229.19,627c.55,2.38-.41,1.62-1.3,2.23-1.52,1.04-6.09,2.72-6.58,4.42l1.88,9.34-7.63-5.9-9.36,4.89,2.86-9.27-6.85-7.72,10.88.88,4.1-8.88,2.99,9.52,9.01.49Z"/>
    <path class="cls-1" d="M415.2,689.01l-2.85,9.28,7.85,6.7-10.01.49-2.99,9.52c-2.64.29-1.58-.06-2.01-1.48-.83-2.72-1.38-5.67-2.08-8.43l-10.9-.11,7.85-6.7-2.85-9.28c1.32-1.27,6.51,4.92,8.48,4.98,2.61.08,8.37-6.07,9.52-4.98Z"/>
    <path class="cls-1" d="M407.19,94l2.99,8.52,10.01.49-7.85,6.7,2.85,9.28-8.55-5.05-9.45,5.05,2.85-9.28-7.85-6.7,10.01-.49c1.81-.29,2.65-10.94,4.97-8.52Z"/>
  </g>
</svg>