<svg width="411" height="20" viewBox="0 0 411 20" fill="none" xmlns="http://www.w3.org/2000/svg">
<path d="M0 1C5 0.999975 18.3 2 33.5 10C48.7 18 63 19 68.5 19" stroke="black"/>
<path d="M137 1C142 0.999975 155.3 2 170.5 10C185.7 18 200 19 205.5 19" stroke="black"/>
<path d="M274 1C279 0.999975 292.3 2 307.5 10C322.7 18 337 19 342.5 19" stroke="black"/>
<path d="M137 1C132 0.999975 118.7 2 103.5 10C88.3 18 74 19 68.5 19" stroke="black"/>
<path d="M274 1C269 0.999975 255.7 2 240.5 10C225.3 18 211 19 205.5 19" stroke="black"/>
<path d="M411 1C406 0.999975 392.7 2 377.5 10C362.3 18 348 19 342.5 19" stroke="black"/>
</svg>
