<svg width="85" height="87" viewBox="0 0 85 87" fill="none" xmlns="http://www.w3.org/2000/svg">
<path d="M62.2821 5.41597L61.9378 4.47709L62.2821 5.41597ZM79.6092 18.0174L80.5936 18.1935L79.6092 18.0174ZM43.9774 84.8053L44.9628 84.9753L43.9774 84.8053ZM60.3477 31.6495L60.2281 30.6567L60.3477 31.6495ZM60.0627 31.7812L59.374 31.0562L60.0627 31.7812ZM80.8575 1.10523L81.0839 0.131197L80.8575 1.10523ZM81.1469 1.55935L82.1412 1.66585L81.1469 1.55935ZM49.4328 27.5171L50.3024 28.0108L49.4328 27.5171ZM48.5084 27.3229L47.5088 27.3519L48.5084 27.3229ZM63.368 15.5634L64.1444 16.1937L63.368 15.5634ZM62.8671 14.8256L63.2184 15.7618L62.8671 14.8256ZM39.7127 64.037L38.7384 64.2622L39.7127 64.037ZM40.7268 64.0523L39.752 63.8293L40.7268 64.0523ZM5.09453 4.95843L4.37278 5.65059L5.09453 4.95843ZM35.9428 84.8317L36.9198 84.6184L35.9428 84.8317ZM36.9198 84.6184C30.2933 54.2547 26.0304 25.3443 5.81627 4.26627L4.37278 5.65059C24.1004 26.2213 28.2813 54.4154 34.9658 85.0449L36.9198 84.6184ZM5.22189 5.15458C9.64345 6.48958 15.6499 10.9511 21.7617 20.3101C27.8588 29.6467 34.0034 43.7744 38.7384 64.2622L40.687 63.8119C35.9148 43.1626 29.6949 28.8005 23.4362 19.2165C17.1921 9.65495 10.8513 4.7651 5.79998 3.23995L5.22189 5.15458ZM41.7016 64.2753C46.4097 43.6935 55.8509 26.4083 64.1444 16.1937L62.5917 14.9331C54.106 25.3845 44.5285 42.9481 39.752 63.8293L41.7016 64.2753ZM62.5158 13.8893C55.8534 16.3893 50.8955 22.9153 48.5632 27.0233L50.3024 28.0108C52.5593 24.0357 57.2194 18.0129 63.2184 15.7618L62.5158 13.8893ZM49.508 27.2939C49.326 21.0161 51.7287 10.3506 62.6263 6.35484L61.9378 4.47709C49.8449 8.91118 47.3165 20.7154 47.5088 27.3519L49.508 27.2939ZM62.6263 6.35484C68.3985 4.23839 72.5921 3.08509 75.5203 2.50614C78.4942 1.91815 80.0553 1.94544 80.6311 2.07927L81.0839 0.131197C80.0658 -0.105429 78.1449 -0.0515061 75.1324 0.544121C72.0741 1.14879 67.777 2.33607 61.9378 4.47709L62.6263 6.35484ZM80.1526 1.45284C79.8912 3.89269 79.5958 7.51877 79.3221 10.7664C79.045 14.0557 78.7948 16.8912 78.6248 17.8413L80.5936 18.1935C80.7847 17.125 81.0436 14.1568 81.3151 10.9343C81.5901 7.67021 81.883 4.07654 82.1412 1.66585L80.1526 1.45284ZM78.6248 17.8413C78.4111 19.0359 77.1199 21.8526 74.1752 24.5855C71.266 27.2854 66.776 29.8678 60.2281 30.6567L60.4673 32.6423C67.4478 31.8014 72.327 29.0293 75.5357 26.0514C78.709 23.1064 80.2843 19.922 80.5936 18.1935L78.6248 17.8413ZM59.374 31.0562C55.2959 34.9299 52.5102 40.8974 50.0927 49.5256C47.6716 58.1665 45.5803 69.6344 42.9919 84.6352L44.9628 84.9753C47.5552 69.9511 49.6303 58.589 52.0185 50.0652C54.4103 41.5286 57.0769 35.9967 60.7514 32.5062L59.374 31.0562ZM36.4313 86.2257H43.4837V84.2257H36.4313V86.2257ZM42.9919 84.6352C43.031 84.4086 43.2271 84.2257 43.4837 84.2257V86.2257C44.2269 86.2257 44.8409 85.6815 44.9628 84.9753L42.9919 84.6352ZM60.2281 30.6567C59.9228 30.6935 59.6177 30.8247 59.374 31.0562L60.7514 32.5062C60.6628 32.5905 60.5603 32.6311 60.4673 32.6423L60.2281 30.6567ZM80.6311 2.07927C80.4544 2.03821 80.3136 1.92466 80.2328 1.79182C80.1579 1.66881 80.1425 1.54674 80.1526 1.45284L82.1412 1.66585C82.2033 1.08607 81.8985 0.320546 81.0839 0.131197L80.6311 2.07927ZM48.5632 27.0233C48.6725 26.8309 48.8968 26.7535 49.0828 26.7914C49.1754 26.8102 49.2807 26.8603 49.3681 26.9577C49.4623 27.0626 49.5049 27.1887 49.508 27.2939L47.5088 27.3519C47.5311 28.1205 48.0852 28.6292 48.6837 28.7511C49.2664 28.8698 49.9457 28.6391 50.3024 28.0108L48.5632 27.0233ZM64.1444 16.1937C64.5884 15.6468 64.5751 14.9358 64.2349 14.4297C63.8867 13.9116 63.2062 13.6302 62.5158 13.8893L63.2184 15.7618C63.1264 15.7963 62.9964 15.808 62.8603 15.7618C62.7321 15.7182 62.636 15.636 62.5751 15.5455C62.4479 15.3563 62.456 15.1002 62.5917 14.9331L64.1444 16.1937ZM38.7384 64.2622C38.92 65.0478 39.6034 65.4278 40.203 65.4381C40.8082 65.4485 41.5171 65.0818 41.7016 64.2753L39.752 63.8293C39.7775 63.7178 39.8502 63.6041 39.9594 63.5272C40.058 63.4579 40.1584 63.4371 40.2374 63.4384C40.3903 63.441 40.6268 63.551 40.687 63.8119L38.7384 64.2622ZM5.81627 4.26627C5.95238 4.40819 5.99682 4.65417 5.88304 4.86625C5.82791 4.969 5.7322 5.06831 5.59585 5.12672C5.4521 5.1883 5.31451 5.18255 5.22189 5.15458L5.79998 3.23995C5.09156 3.02606 4.42371 3.35587 4.12067 3.92069C3.83092 4.46074 3.89999 5.15759 4.37278 5.65059L5.81627 4.26627ZM34.9658 85.0449C35.1157 85.732 35.7245 86.2257 36.4313 86.2257V84.2257C36.6682 84.2257 36.87 84.3904 36.9198 84.6184L34.9658 85.0449Z" fill="white"/>
</svg>
